# xmcd CD database file
#
# Track frame offsets:
#	150
#	16215
#	32870
#	49195
#	64927
#	78702
#	93147
#	108912
#	124456
#	144092
#	161538
#	175544
#	190200
#	207105
#	224310
#	239963
#	258947
#	277016
#	293882
#	308597
#
# Disc length: 4332 seconds
#
# Revision: 0
# Processed by: cddbd v1.5.2PL0 Copyright (c) Steve Scherf et al.
# Submitted via: CDex 1.51
#
DISCID=2210ea14
DTITLE=Nechivile - Dvd ao Vivo (acústico)
DYEAR=2007
DGENRE=Country
TTITLE0=Por Toda Vida 
TTITLE1=Pago Pra Ver
TTITLE2=Tente Entender
TTITLE3=Amor sem fim
TTITLE4=Era só prá ficar
TTITLE5=Vem me amar
TTITLE6=Saudade Matadeira
TTITLE7=Caminho do Amor
TTITLE8=Tentei te esquecer
TTITLE9=O amor e o tempo
TTITLE10=Queimando gasolina
TTITLE11=Forró doido
TTITLE12=Meu melhor amor
TTITLE13=Trago ilusão
TTITLE14=Quero
TTITLE15=Coração
TTITLE16=Prá sempre quero te amar
TTITLE17=Jeito de olhar
TTITLE18=Vem me namorar
TTITLE19=A gente se enrosca
EXTD=YEAR: 2007
EXTT0=
EXTT1=
EXTT2=
EXTT3=
EXTT4=
EXTT5=
EXTT6=
EXTT7=
EXTT8=
EXTT9=
EXTT10=
EXTT11=
EXTT12=
EXTT13=
EXTT14=
EXTT15=
EXTT16=
EXTT17=
EXTT18=
EXTT19=
PLAYORDER=
